<svg id="eEKjhvAtBDb1" xmlns="http://www.w3.org/2000/svg" xmlns:xlink="http://www.w3.org/1999/xlink" viewBox="0 0 640 480" shape-rendering="geometricPrecision" text-rendering="geometricPrecision"><defs><linearGradient id="eEKjhvAtBDb2-fill" x1="0.019554" y1="0.771534" x2="1" y2="0.292894" spreadMethod="pad" gradientUnits="objectBoundingBox" gradientTransform="translate(0 0)"><stop id="eEKjhvAtBDb2-fill-0" offset="0%" stop-color="#1b3904"/><stop id="eEKjhvAtBDb2-fill-1" offset="100%" stop-color="#74bc45"/></linearGradient><linearGradient id="eEKjhvAtBDb3-fill" x1="0.013573" y1="0.860846" x2="1" y2="0.5" spreadMethod="pad" gradientUnits="objectBoundingBox" gradientTransform="translate(0 0)"><stop id="eEKjhvAtBDb3-fill-0" offset="0%" stop-color="#124c07"/><stop id="eEKjhvAtBDb3-fill-1" offset="100%" stop-color="#9fec60"/></linearGradient><linearGradient id="eEKjhvAtBDb4-fill" x1="0.016582" y1="0.84434" x2="0.962064" y2="0.175672" spreadMethod="pad" gradientUnits="objectBoundingBox" gradientTransform="translate(0 0)"><stop id="eEKjhvAtBDb4-fill-0" offset="0%" stop-color="#def8d7"/><stop id="eEKjhvAtBDb4-fill-1" offset="100%" stop-color="#3d8823"/></linearGradient></defs><path d="M0,235.67094c49.68812,0,46.346581,10.632708,106.604039,37.14599c29.020311,12.768937,55.773164,20.894624,84.739309,20.894624c38.47812,0,86.712739-66.900129,128.073607-66.900129c47.727,0,72.457996,10.443177,86.868149,20.467631c31.704691,22.055437,13.989182,38.464599,49.794062,18.572999c14.34758-7.97088,27.88383-18.572999,45.201108-18.572999c18.935467,0,34.5935,44.414714,45.905258,43.825087c9.146753-.476776,62.596803-52.892427,92.814472-52.892427.004085-18.454893,0,83.234788,0,91.018989c12.271413,0-662.055441-.694777-640.000004-.694777" transform="translate(0-38.021065)" fill="url(#eEKjhvAtBDb2-fill)" stroke-width="1.28"/><path d="M93.415349,288.84729c9.62694-26.47407,44.978734-73.743654,66.415385-91.018989c47.630745-38.384591,84.573195,37.229206,136.419596,53.789779c24.18694,7.725697,51.803378,12.170007,78.874752,0c30.325799-13.633042,90.188844-29.173943,128.272484-25.546933c61.21583,5.83008,101.713863,20.510961,153.437249,62.776143h-563.419466Z" transform="matrix(1.135921 0 0 1-106.111634 1.667573)" fill="url(#eEKjhvAtBDb3-fill)" stroke-width="1.28"/><path d="M632.596951,378.275498h-640.000004c34.246605,43.508514,57.462854,50.862253,100.412915,30.739578c28.041744-13.13793,62.111824,32.036565,83.507919,20.122674c17.781025-9.900928,36.373362-20.975635,49.211019-13.633042c23.429091,13.400442,28.140792,14.535591,52.762772,26.846581c19.77073,9.88537,41.722386,18.622069,70.607115,0c36.511636-23.539158,128.034233-29.26061,170.826423-13.213539c42.724604,16.021726,88.485483,11.913891,112.671841-50.862252Z" transform="matrix(-1 0 0-1 632.596951 669.485138)" fill="url(#eEKjhvAtBDb4-fill)" stroke-width="1.28"/></svg>