<svg id="eHc3gQGO9F41" xmlns="http://www.w3.org/2000/svg" xmlns:xlink="http://www.w3.org/1999/xlink" viewBox="0 0 640 480" shape-rendering="geometricPrecision" text-rendering="geometricPrecision"><defs><linearGradient id="eHc3gQGO9F43-fill" x1="0" y1="0.5" x2="1" y2="0.5" spreadMethod="pad" gradientUnits="objectBoundingBox" gradientTransform="translate(0 0)"><stop id="eHc3gQGO9F43-fill-0" offset="0%" stop-color="#dcdcff"/><stop id="eHc3gQGO9F43-fill-1" offset="100%" stop-color="#a3a392"/></linearGradient><linearGradient id="eHc3gQGO9F44-fill" x1="0" y1="0.5" x2="1" y2="0.5" spreadMethod="pad" gradientUnits="objectBoundingBox" gradientTransform="translate(0 0)"><stop id="eHc3gQGO9F44-fill-0" offset="0%" stop-color="#dcdcff"/><stop id="eHc3gQGO9F44-fill-1" offset="100%" stop-color="#a3a392"/></linearGradient></defs><ellipse rx="75" ry="75" transform="translate(320 224.594811)" fill="#babab6" stroke-width="0"/><path d="M123.58954,105.26879h48.135521h46.215565c2.71209,47.43897-3.27503,68.846155,8.98636,102.701255l19.256486,93.714895h-152.76812l19.256486-93.714895c12.26138-33.8551,8.205612-55.262285,10.917702-102.701255Z" transform="matrix(1.2 0 0 1.3-34.216636-61.043059)" fill="url(#eHc3gQGO9F43-fill)" stroke-width="1.28"/><path d="M123.58954,105.26879h48.135521h46.215565c2.71209,47.43897-3.27503,68.846155,8.98636,102.701255l19.256486,93.714895h-152.76812l19.256486-93.714895c12.26138-33.8551,8.205612-55.262285,10.917702-102.701255Z" transform="matrix(1 0 0 0.9 296.293127 20.347687)" fill="url(#eHc3gQGO9F44-fill)" stroke-width="1.28"/><rect width="304.380852" height="123.626635" rx="0" ry="0" transform="translate(238.095747 207.520727)" fill="#b0b0ab" stroke-width="0"/><ellipse rx="48" ry="48" transform="translate(169.542658 203.476866)" fill="#515151" stroke-width="0"/><ellipse rx="40" ry="40" transform="translate(169.542658 203.476866)" fill="#f1e26e" stroke-width="0"/><polygon points="-21.804503,-42.498179 -6.804503,-13.148463 -36.804503,-13.148463 -21.804503,-42.498179" transform="matrix(1 0 0 0.851797 191.347161 243.720549)" fill="#0c0c0c" stroke-width="0"/><polygon points="-21.804503,-42.498179 -6.804503,-13.148463 -36.804503,-13.148463 -21.804503,-42.498179" transform="matrix(-.5 0.866025-.737678-.425898 159.790442 199.887773)" stroke-width="0"/><polygon points="-21.804503,-42.498179 -6.804503,-13.148463 -36.804503,-13.148463 -21.804503,-42.498179" transform="matrix(-.5-.866025 0.737678-.425898 157.490371 162.121266)" fill="#050505" stroke-width="0"/><ellipse rx="10" ry="10" transform="translate(169.542658 203.476866)" fill="#090909" stroke-width="0"/><rect width="20" height="20" rx="0" ry="0" transform="translate(254.210244 222.520727)" fill="#d2dbed" stroke-width="0"/><rect width="20" height="20" rx="0" ry="0" transform="translate(279.206714 222.520727)" fill="#d2dbed" stroke-width="0"/><rect width="20" height="20" rx="0" ry="0" transform="translate(304.206714 222.520727)" fill="#d2dbed" stroke-width="0"/><rect width="20" height="20" rx="0" ry="0" transform="translate(329.206714 222.520727)" fill="#d2dbed" stroke-width="0"/><rect width="20" height="20" rx="0" ry="0" transform="translate(354.206714 222.520727)" fill="#d2dbed" stroke-width="0"/><rect width="20" height="20" rx="0" ry="0" transform="translate(379.206714 222.520727)" fill="#d2dbed" stroke-width="0"/><rect width="20" height="20" rx="0" ry="0" transform="translate(429.206714 222.520727)" fill="#d2dbed" stroke-width="0"/><rect width="20" height="20" rx="0" ry="0" transform="translate(454.206714 222.520727)" fill="#d2dbed" stroke-width="0"/><rect width="20" height="20" rx="0" ry="0" transform="translate(479.206714 222.520727)" fill="#d2dbed" stroke-width="0"/><rect width="20" height="20" rx="0" ry="0" transform="translate(478.704949 247.52)" fill="#d2dbed" stroke-width="0"/><rect width="20" height="20" rx="0" ry="0" transform="translate(453.704949 247.52)" fill="#d2dbed" stroke-width="0"/><rect width="20" height="20" rx="0" ry="0" transform="translate(428.704949 247.52)" fill="#d2dbed" stroke-width="0"/><rect width="20" height="20" rx="0" ry="0" transform="translate(403.704949 247.52)" fill="#d2dbed" stroke-width="0"/><rect width="20" height="20" rx="0" ry="0" transform="translate(378.704949 247.52)" fill="#d2dbed" stroke-width="0"/><rect width="20" height="20" rx="0" ry="0" transform="translate(353.704949 247.52)" fill="#d2dbed" stroke-width="0"/><rect width="20" height="20" rx="0" ry="0" transform="translate(328.704949 247.52)" fill="#d2dbed" stroke-width="0"/><rect width="20" height="20" rx="0" ry="0" transform="translate(303.704949 247.52)" fill="#d2dbed" stroke-width="0"/><rect width="20" height="20" rx="0" ry="0" transform="translate(278.704949 247.52)" fill="#d2dbed" stroke-width="0"/><rect width="20" height="20" rx="0" ry="0" transform="translate(253.708479 247.52)" fill="#d2dbed" stroke-width="0"/><rect width="20" height="20" rx="0" ry="0" transform="translate(504.704949 247.52)" fill="#d2dbed" stroke-width="0"/><rect width="20" height="20" rx="0" ry="0" transform="translate(505.206714 222.520727)" fill="#d2dbed" stroke-width="0"/><rect width="20" height="20" rx="0" ry="0" transform="translate(404.206714 222.520727)" fill="#d2dbed" stroke-width="0"/><rect width="104.757714" height="39.28323" rx="0" ry="0" transform="translate(337.329622 291.864132)" fill="#7d7e81" stroke-width="0"/></svg>