<svg id="eNQn0BdAFsU1" xmlns="http://www.w3.org/2000/svg" xmlns:xlink="http://www.w3.org/1999/xlink" viewBox="0 0 640 480" shape-rendering="geometricPrecision" text-rendering="geometricPrecision"><defs><linearGradient id="eNQn0BdAFsU2-fill" x1="0" y1="0.5" x2="1" y2="0.5" spreadMethod="pad" gradientUnits="objectBoundingBox" gradientTransform="translate(0 0)"><stop id="eNQn0BdAFsU2-fill-0" offset="0%" stop-color="#986e3d"/><stop id="eNQn0BdAFsU2-fill-1" offset="100%" stop-color="#68411b"/></linearGradient><linearGradient id="eNQn0BdAFsU3-fill" x1="0" y1="0.5" x2="1" y2="0.5" spreadMethod="pad" gradientUnits="objectBoundingBox" gradientTransform="translate(0 0)"><stop id="eNQn0BdAFsU3-fill-0" offset="0%" stop-color="#986e3d"/><stop id="eNQn0BdAFsU3-fill-1" offset="100%" stop-color="#68411b"/></linearGradient><linearGradient id="eNQn0BdAFsU8-fill" x1="0" y1="0.5" x2="1" y2="0.5" spreadMethod="pad" gradientUnits="objectBoundingBox" gradientTransform="translate(0 0)"><stop id="eNQn0BdAFsU8-fill-0" offset="0%" stop-color="#986e3d"/><stop id="eNQn0BdAFsU8-fill-1" offset="100%" stop-color="#68411b"/></linearGradient></defs><rect width="50" height="160" rx="0" ry="0" transform="translate(79.601029 48.710568)" fill="url(#eNQn0BdAFsU2-fill)" stroke-width="0"/><rect width="50" height="160" rx="0" ry="0" transform="translate(278.618148 48.710568)" fill="url(#eNQn0BdAFsU3-fill)" stroke-width="0"/><ellipse rx="24.000787" ry="5" transform="matrix(.833306 0 0 1 502.635265 46.956088)" fill="#92959a" stroke-width="0"/><ellipse rx="25" ry="7.702595" transform="translate(303.618148 46.956088)" fill="#724b22" stroke-width="0"/><ellipse rx="24.000787" ry="5" transform="matrix(.833306 0 0 1 303.618147 46.956088)" fill="#92959a" stroke-width="0"/><ellipse rx="25" ry="7.702595" transform="translate(104.601029 46.956088)" fill="#724b22" stroke-width="0"/><rect width="50" height="160" rx="0" ry="0" transform="translate(477.635265 48.710568)" fill="url(#eNQn0BdAFsU8-fill)" stroke-width="0"/><ellipse rx="25" ry="7.702595" transform="translate(502.635265 46.956088)" fill="#724b22" stroke-width="0"/><ellipse rx="24.000787" ry="5" transform="matrix(.833306 0 0 1 502.635265 46.956088)" fill="#92959a" stroke-width="0"/><ellipse rx="24.000787" ry="5" transform="matrix(.833306 0 0 1 104.601029 46.956088)" fill="#92959a" stroke-width="0"/><rect width="448.034234" height="177.159669" rx="0" ry="0" transform="translate(79.60103 198.983686)" fill="#906737" stroke-width="0"/><rect width="73.174645" height="136.143355" rx="0" ry="0" transform="translate(507.764576 240)" fill="#906737" stroke-width="0"/><rect width="107.836319" height="130.944104" rx="0" ry="0" transform="translate(59.060779 245.199251)" fill="#906737" stroke-width="0"/><rect width="307.216525" height="88.579835" rx="0" ry="0" transform="translate(150.009885 287.563521)" fill="#353131" stroke-width="0"/></svg>