<svg id="e48yCRJDVUA1" xmlns="http://www.w3.org/2000/svg" xmlns:xlink="http://www.w3.org/1999/xlink" viewBox="0 0 640 480" shape-rendering="geometricPrecision" text-rendering="geometricPrecision"><defs><linearGradient id="e48yCRJDVUA2-fill" x1="0.5" y1="0.000001" x2="0.5" y2="0.999999" spreadMethod="pad" gradientUnits="objectBoundingBox" gradientTransform="translate(0 0)"><stop id="e48yCRJDVUA2-fill-0" offset="0%" stop-color="#fdf400"/><stop id="e48yCRJDVUA2-fill-1" offset="100%" stop-color="#c38e24"/></linearGradient><linearGradient id="e48yCRJDVUA3-fill" x1="0.5" y1="0" x2="0.5" y2="1" spreadMethod="pad" gradientUnits="objectBoundingBox" gradientTransform="translate(0 0)"><stop id="e48yCRJDVUA3-fill-0" offset="0%" stop-color="#f8eb03"/><stop id="e48yCRJDVUA3-fill-1" offset="100%" stop-color="#c38f23"/></linearGradient><linearGradient id="e48yCRJDVUA4-fill" x1="0.5" y1="0" x2="0.5" y2="1" spreadMethod="pad" gradientUnits="objectBoundingBox" gradientTransform="translate(0 0)"><stop id="e48yCRJDVUA4-fill-0" offset="0%" stop-color="#f8eb03"/><stop id="e48yCRJDVUA4-fill-1" offset="100%" stop-color="#c38f23"/></linearGradient><linearGradient id="e48yCRJDVUA5-fill" x1="0.5" y1="0" x2="0.5" y2="1" spreadMethod="pad" gradientUnits="objectBoundingBox" gradientTransform="translate(0 0)"><stop id="e48yCRJDVUA5-fill-0" offset="0%" stop-color="#f8eb03"/><stop id="e48yCRJDVUA5-fill-1" offset="100%" stop-color="#c38f23"/></linearGradient><linearGradient id="e48yCRJDVUA6-fill" x1="0.5" y1="0" x2="0.5" y2="1" spreadMethod="pad" gradientUnits="objectBoundingBox" gradientTransform="translate(0 0)"><stop id="e48yCRJDVUA6-fill-0" offset="0%" stop-color="#f8eb03"/><stop id="e48yCRJDVUA6-fill-1" offset="100%" stop-color="#c38f23"/></linearGradient><linearGradient id="e48yCRJDVUA7-fill" x1="0.5" y1="0" x2="0.5" y2="1" spreadMethod="pad" gradientUnits="objectBoundingBox" gradientTransform="translate(0 0)"><stop id="e48yCRJDVUA7-fill-0" offset="0%" stop-color="#f8eb03"/><stop id="e48yCRJDVUA7-fill-1" offset="100%" stop-color="#c38f23"/></linearGradient><linearGradient id="e48yCRJDVUA8-fill" x1="0.5" y1="0" x2="0.5" y2="1" spreadMethod="pad" gradientUnits="objectBoundingBox" gradientTransform="translate(0 0)"><stop id="e48yCRJDVUA8-fill-0" offset="0%" stop-color="#f8eb03"/><stop id="e48yCRJDVUA8-fill-1" offset="100%" stop-color="#c38f23"/></linearGradient><linearGradient id="e48yCRJDVUA9-fill" x1="0.5" y1="0" x2="0.5" y2="1" spreadMethod="pad" gradientUnits="objectBoundingBox" gradientTransform="translate(0 0)"><stop id="e48yCRJDVUA9-fill-0" offset="0%" stop-color="#f8eb03"/><stop id="e48yCRJDVUA9-fill-1" offset="100%" stop-color="#c38f23"/></linearGradient></defs><path d="M-5.776949,-0.069536h30L18.330197,105.740865h-19.285715L-5.776949,-0.069536Z" transform="matrix(1 0 0 1.134104 310.776949 20.078862)" fill="url(#e48yCRJDVUA2-fill)" stroke-width="0"/><path d="M-5.776949,-0.069536h30L18.330197,105.740865h-19.285715L-5.776949,-0.069536Z" transform="matrix(0 1-1.134104 0 539.921138 230.776949)" fill="url(#e48yCRJDVUA3-fill)" stroke-width="0"/><path d="M-5.776949,-0.069536h30L18.330197,105.740865h-19.285715L-5.776949,-0.069536Z" transform="matrix(-1 0 0-1.134104 329.223051 459.921138)" fill="url(#e48yCRJDVUA4-fill)" stroke-width="0"/><path d="M-5.776949,-0.069536h30L18.330197,105.740865h-19.285715L-5.776949,-0.069536Z" transform="matrix(0-1 1.134104 0 100.078862 249.223051)" fill="url(#e48yCRJDVUA5-fill)" stroke-width="0"/><path d="M-5.776949,-0.069536h30L18.330197,105.740865h-19.285715L-5.776949,-0.069536Z" transform="matrix(.707107 0.707107-.801933 0.801933 462.815953 84.140683)" fill="url(#e48yCRJDVUA6-fill)" stroke-width="0"/><path d="M-5.776949,-0.069536h30L18.330197,105.740865h-19.285715L-5.776949,-0.069536Z" transform="matrix(-.707107 0.707107-.801933-.801933 486.465919 382.815953)" fill="url(#e48yCRJDVUA7-fill)" stroke-width="0"/><path d="M-5.776949,-0.069536h30L18.330197,105.740865h-19.285715L-5.776949,-0.069536Z" transform="matrix(-.707107-.707107 0.801933-.801933 177.184048 406.465919)" fill="url(#e48yCRJDVUA8-fill)" stroke-width="0"/><path d="M-5.776949,-0.069536h30L18.330197,105.740865h-19.285715L-5.776949,-0.069536Z" transform="matrix(.707107-.707107 0.801933 0.801933 164.140684 86.577445)" fill="url(#e48yCRJDVUA9-fill)" stroke-width="0"/><line x1="0" y1="-73.816528" x2="0" y2="73.816529" transform="matrix(.92388 0.382683-.34342 0.829089 384.540585 90.606602)" fill="none" stroke="#e39125" stroke-width="7"/><line x1="0" y1="-73.816528" x2="0" y2="73.816529" transform="matrix(.382683 0.92388-.829089 0.34342 471.091174 175.459415)" fill="none" stroke="#e39125" stroke-width="7"/><line x1="0" y1="-73.816528" x2="0" y2="73.816529" transform="matrix(-.92388 0.382683-.34342-.829089 384.540586 389.393399)" fill="none" stroke="#e39125" stroke-width="7"/><line x1="0" y1="-73.816528" x2="0" y2="73.816529" transform="matrix(-.382683 0.92388-.829089-.34342 471.091174 300.403709)" fill="none" stroke="#e39125" stroke-width="7"/><line x1="0" y1="-73.816528" x2="0" y2="73.816529" transform="matrix(-.92388-.382683 0.34342-.829089 262.459415 393.799491)" fill="none" stroke="#e39125" stroke-width="7"/><line x1="0" y1="-73.816528" x2="0" y2="73.816529" transform="matrix(-.382683-.92388 0.829089-.34342 170.606603 304.540586)" fill="none" stroke="#e39125" stroke-width="7"/><line x1="0" y1="-73.816528" x2="0" y2="73.816529" transform="matrix(.382683-.92388 0.829089 0.34342 170.606603 177.157191)" fill="none" stroke="#e39125" stroke-width="7"/><line x1="0" y1="-73.816528" x2="0" y2="73.816529" transform="matrix(.92388-.382683 0.34342 0.829089 260.157192 87.439102)" fill="none" stroke="#e39125" stroke-width="7"/></svg>