<?xml version="1.0" standalone="no"?>
<!DOCTYPE svg PUBLIC "-//W3C//DTD SVG 20010904//EN"
 "http://www.w3.org/TR/2001/REC-SVG-20010904/DTD/svg10.dtd">
<svg version="1.0" xmlns="http://www.w3.org/2000/svg"
 width="500.000000pt" height="500.000000pt" viewBox="0 0 500.000000 500.000000"
 preserveAspectRatio="xMidYMid meet">
<metadata>
Created by potrace 1.14, written by Peter Selinger 2001-2017
</metadata>
<g transform="translate(0.000000,500.000000) scale(0.100000,-0.100000)"
fill="#000000" stroke="none">
<path d="M1868 3085 c-2 -1 -37 -5 -78 -9 -104 -9 -207 -39 -330 -97 -191 -91
-383 -233 -489 -362 -77 -95 -123 -191 -146 -304 -12 -58 -34 -122 -66 -188
-27 -55 -59 -140 -71 -188 -25 -96 -22 -105 29 -103 23 1 28 8 42 61 15 53 89
225 97 225 2 0 22 -10 45 -22 81 -42 214 -55 334 -33 54 10 169 49 230 78 l50
25 3 -42 3 -41 76 2 c41 1 78 5 81 8 3 2 5 49 5 102 l-1 97 36 33 c20 18 38
33 41 33 4 0 5 -59 5 -131 -1 -109 1 -132 14 -136 13 -5 129 -7 207 -4 19 1
20 8 20 252 l-1 251 32 24 c17 13 34 24 38 24 4 0 6 -84 6 -187 -1 -104 -1
-227 -1 -275 l1 -88 650 0 650 0 0 -110 0 -111 340 256 c187 141 340 258 340
260 0 1 -98 76 -217 166 -120 90 -222 167 -228 172 -5 4 -61 46 -122 93 l-113
85 0 -111 0 -110 -27 -1 c-37 0 -1127 0 -1178 0 -36 1 -38 2 -20 14 35 24 128
49 195 54 53 4 78 0 138 -22 66 -24 92 -26 92 -7 0 11 -109 122 -175 179 -123
105 -258 164 -410 179 -89 9 -125 11 -127 9z m157 -145 c3 -5 1 -10 -4 -10 -6
0 -11 5 -11 10 0 6 2 10 4 10 3 0 8 -4 11 -10z m55 -10 c8 -5 11 -10 5 -10 -5
0 -17 5 -25 10 -8 5 -10 10 -5 10 6 0 17 -5 25 -10z"/>
</g>
</svg>
