<svg id="eZGeixzmnX81" xmlns="http://www.w3.org/2000/svg" xmlns:xlink="http://www.w3.org/1999/xlink" viewBox="0 0 500 500" shape-rendering="geometricPrecision" text-rendering="geometricPrecision"><defs><linearGradient id="eZGeixzmnX84-fill" x1="0.5" y1="0.5" x2="0.5" y2="1" spreadMethod="pad" gradientUnits="objectBoundingBox" gradientTransform="translate(0 0)"><stop id="eZGeixzmnX84-fill-0" offset="0%" stop-color="#3c2e13"/><stop id="eZGeixzmnX84-fill-1" offset="100%" stop-color="#4c4e51"/></linearGradient><linearGradient id="eZGeixzmnX85-fill" x1="0.5" y1="0.18823" x2="0.5" y2="0.877426" spreadMethod="pad" gradientUnits="objectBoundingBox" gradientTransform="translate(0 0)"><stop id="eZGeixzmnX85-fill-0" offset="0%" stop-color="#978967"/><stop id="eZGeixzmnX85-fill-1" offset="100%" stop-color="#3c2e13"/></linearGradient><radialGradient id="eZGeixzmnX86-fill" cx="0" cy="0" r="0.5" spreadMethod="pad" gradientUnits="objectBoundingBox" gradientTransform="translate(0.5 0.5)"><stop id="eZGeixzmnX86-fill-0" offset="0%" stop-color="#6e542e"/><stop id="eZGeixzmnX86-fill-1" offset="100%" stop-color="#45403a"/></radialGradient><radialGradient id="eZGeixzmnX87-fill" cx="0" cy="0" r="0.5" spreadMethod="pad" gradientUnits="objectBoundingBox" gradientTransform="translate(0.5 0.5)"><stop id="eZGeixzmnX87-fill-0" offset="0%" stop-color="#6e542e"/><stop id="eZGeixzmnX87-fill-1" offset="100%" stop-color="#45403a"/></radialGradient><linearGradient id="eZGeixzmnX88-fill" x1="0" y1="0.5" x2="1" y2="0.5" spreadMethod="pad" gradientUnits="objectBoundingBox" gradientTransform="translate(0 0)"><stop id="eZGeixzmnX88-fill-0" offset="0%" stop-color="#473b23"/><stop id="eZGeixzmnX88-fill-1" offset="100%" stop-color="#64676c"/></linearGradient></defs><g transform="matrix(1.322191 0 0 1.373533-103.831514-116.951907)"><g transform="matrix(1.792956 0 0 1.784995-212.202955-259.845507)"><ellipse rx="39.057" ry="37.301" transform="translate(267.60999 321.783041)" fill="url(#eZGeixzmnX84-fill)" stroke-width="0"/><ellipse rx="51.71" ry="47.713" transform="translate(267.60999 279.112041)" fill="url(#eZGeixzmnX85-fill)" stroke-width="0"/><ellipse rx="15" ry="15" transform="translate(291.66699 290.481041)" fill="url(#eZGeixzmnX86-fill)" stroke-width="0"/><ellipse rx="15" ry="15" transform="translate(243.55299 290.481041)" fill="url(#eZGeixzmnX87-fill)" stroke-width="0"/></g><path d="M186.26321,297.40957c0,6.73566-14.2557,12.196-31.841,12.196-11.11247,0-20.89535-2.18042-26.5916-5.48523-2.98314.58003-6.3971.90923-10.0244.90923-7.61537,0-14.29039-1.45104-18.01257-3.62783-4.71224,2.45494-10.96806,3.95083-17.83243,3.95083-14.6604,0-26.545-6.82318-26.545-15.24c0-7.89294,10.4512-14.38445,23.84198-15.16196c3.67024-5.83124,15.37552-10.09504,29.24802-10.09504c16.26301,0,29.54755,5.85989,30.39958,13.2354c2.80505-.32139,5.84884-.4974,9.02942-.4974c14.00263,0,25.354,3.41159,25.354,7.62c0,.73017-.34171,1.43635-.97968,2.10488c8.42216,2.19449,13.95368,5.89538,13.95368,10.09112Zm-60.45082-7.05473c.69186.10209,1.36536.21702,2.01822.34396.2949-.17109.60075-.33917.91717-.50409-.41096-.14286-.80456-.29036-1.1798-.44221-.56877.21014-1.15433.41109-1.7556.60234h.00001Z" transform="matrix(1.739157 0 0 1.677032 57.450755-158.734642)" fill="url(#eZGeixzmnX88-fill)" stroke-width="0"/></g></svg>